<?xml version="1.0" encoding="utf-8"?>
<!-- Generator: Adobe Illustrator 27.7.0, SVG Export Plug-In . SVG Version: 6.00 Build 0)  -->
<svg version="1.0" id="Layer_2_00000073718913692352539900000007012244502665384834_"
	 xmlns="http://www.w3.org/2000/svg" xmlns:xlink="http://www.w3.org/1999/xlink" x="0px" y="0px" viewBox="0 0 216.9 71.7"
	 style="enable-background:new 0 0 216.9 71.7;" xml:space="preserve">
<style type="text/css">
	.st0{fill:#F0F0F0;}
	.st1{fill:#E54149;stroke:#000000;stroke-miterlimit:10;}
	.st2{fill:#231F20;}
	.st3{font-family:'Poppins-Regular';}
	.st4{font-size:14.4px;}
	.st5{fill:#EFCB37;stroke:#000000;stroke-miterlimit:10;}
	.st6{fill:#2C9958;stroke:#000000;stroke-miterlimit:10;}
	.st7{fill:none;stroke:#000000;stroke-miterlimit:10;}
	.st8{fill:#FCDA4F;stroke:#000000;stroke-miterlimit:10;}
	.st9{fill:#FCDA4F;}
	.st10{fill:#2C9958;}
	.st11{fill:#E54149;}
	.st12{fill:#EFCB37;}
	.st13{fill:#DAEBEE;}
	.st14{fill:#EBDECB;}
</style>
<rect x="-145.5" y="272.9" class="st0" width="444.1" height="348.6"/>
<g id="Layer_1-2">
	<rect y="51.8" class="st1" width="19.9" height="19.9"/>
	<text transform="matrix(1 0 0 1 25.22 64.19)" class="st2 st3 st4"> value decreased</text>
	<rect y="25.9" class="st5" width="19.9" height="19.9"/>
	<text transform="matrix(1 0 0 1 25.22 38.28)" class="st2 st3 st4"> value stayed the same</text>
	<rect class="st6" width="19.9" height="19.9"/>
	<text transform="matrix(1 0 0 1 25.22 12.37)" class="st2 st3 st4"> value increased</text>
</g>
<g id="Layer_1-2_00000148656808044486101980000001737332153802088614_">
	<rect x="411.6" y="221.5" class="st1" width="19.9" height="19.9"/>
	<text transform="matrix(1 0 0 1 436.8372 233.8689)" class="st2 st3 st4"> value decreased</text>
	<rect x="411.6" y="195.6" class="st5" width="19.9" height="19.9"/>
	<text transform="matrix(1 0 0 1 436.8372 207.959)" class="st2 st3 st4"> value stayed the same</text>
	<rect x="411.6" y="169.7" class="st6" width="19.9" height="19.9"/>
	<text transform="matrix(1 0 0 1 436.8372 182.0489)" class="st2 st3 st4"> value increased</text>
</g>
<g id="cGszFL.tif">
	
		<image style="overflow:visible;" width="1136" height="560" id="Layer_0_00000057116237397639963340000006699446677825232022_" xlink:href="755419997AA38631.png"  transform="matrix(0.5 0 0 0.5 -924.6564 469.3073)">
	</image>
</g>
<g>
	<rect x="236.1" y="103.2" class="st1" width="19.9" height="19.9"/>
	<text transform="matrix(1 0 0 1 261.355 115.5671)" class="st3 st4"> value decreased</text>
</g>
<g>
	<rect x="76" y="174.9" class="st1" width="19.9" height="19.9"/>
	<text transform="matrix(1 0 0 1 101.2128 187.2838)" class="st3 st4"> value decreased</text>
</g>
<g>
	<rect x="22.5" y="103.2" class="st5" width="19.9" height="19.9"/>
	<text transform="matrix(1 0 0 1 47.7183 115.5571)" class="st3 st4"> value stayed the same</text>
</g>
<g>
	<rect x="-145.5" y="103.2" class="st6" width="19.9" height="19.9"/>
	<text transform="matrix(1 0 0 1 -120.2817 115.5471)" class="st3 st4"> value increased</text>
</g>
<rect x="-156.8" y="94.8" class="st7" width="551.7" height="35.6"/>
<rect x="-145.5" y="174.9" class="st8" width="37.1" height="37.1"/>
<rect x="7.4" y="204.6" class="st9" width="37.1" height="37.1"/>
<rect x="-86.6" y="315.9" class="st10" width="43.8" height="43.8"/>
<rect x="-33.9" y="315.9" class="st11" width="43.8" height="43.8"/>
<rect x="18.8" y="315.9" class="st11" width="43.8" height="43.8"/>
<rect x="71.5" y="315.9" class="st10" width="43.8" height="43.8"/>
<rect x="124.2" y="315.9" class="st11" width="43.8" height="43.8"/>
<rect x="176.9" y="315.9" class="st11" width="43.8" height="43.8"/>
<rect x="229.6" y="315.9" class="st11" width="43.8" height="43.8"/>
<rect x="-86.6" y="370.7" class="st11" width="43.8" height="43.8"/>
<rect x="-33.9" y="370.7" class="st11" width="43.8" height="43.8"/>
<rect x="18.8" y="370.7" class="st11" width="43.8" height="43.8"/>
<rect x="71.5" y="370.7" class="st11" width="43.8" height="43.8"/>
<rect x="124.2" y="370.7" class="st11" width="43.8" height="43.8"/>
<rect x="176.9" y="370.7" class="st11" width="43.8" height="43.8"/>
<rect x="229.6" y="370.7" class="st11" width="43.8" height="43.8"/>
<rect x="-86.6" y="425.5" class="st11" width="43.8" height="43.8"/>
<rect x="-33.9" y="425.5" class="st11" width="43.8" height="43.8"/>
<rect x="18.8" y="425.5" class="st10" width="43.8" height="43.8"/>
<rect x="71.5" y="425.5" class="st11" width="43.8" height="43.8"/>
<rect x="124.2" y="425.5" class="st12" width="43.8" height="43.8"/>
<rect x="176.9" y="425.5" class="st12" width="43.8" height="43.8"/>
<rect x="229.6" y="425.5" class="st11" width="43.8" height="43.8"/>
<rect x="-86.6" y="480.2" class="st11" width="43.8" height="43.8"/>
<rect x="-33.9" y="480.2" class="st11" width="43.8" height="43.8"/>
<rect x="18.8" y="480.2" class="st11" width="43.8" height="43.8"/>
<rect x="71.5" y="480.2" class="st11" width="43.8" height="43.8"/>
<rect x="124.2" y="480.2" class="st12" width="43.8" height="43.8"/>
<rect x="176.9" y="480.2" class="st12" width="43.8" height="43.8"/>
<rect x="229.6" y="480.2" class="st11" width="43.8" height="43.8"/>
<rect x="-86.6" y="535" class="st11" width="43.8" height="43.8"/>
<rect x="-33.9" y="535" class="st11" width="43.8" height="43.8"/>
<rect x="18.8" y="535" class="st11" width="43.8" height="43.8"/>
<rect x="71.5" y="535" class="st11" width="43.8" height="43.8"/>
<rect x="124.2" y="535" class="st11" width="43.8" height="43.8"/>
<rect x="176.9" y="535" class="st11" width="43.8" height="43.8"/>
<rect x="229.6" y="535" class="st11" width="43.8" height="43.8"/>
<text transform="matrix(1 0 0 1 -464.1993 115.697)"><tspan x="0" y="0" class="st3" style="fill:#2A9958; font-size:33.3439px;">green : </tspan><tspan x="122.6" y="0" class="st3" style="fill:#2A9958; font-size:33.3439px;">2C9958</tspan></text>
<text transform="matrix(1 0 0 1 -456.6402 194.82)"><tspan x="0" y="0" class="st12 st3" style="font-size:33.3439px;">yellow: </tspan><tspan x="120.5" y="0" class="st12 st3" style="font-size:33.3439px;">EFCB37</tspan></text>
<text transform="matrix(1 0 0 1 -456.6402 159.3874)"><tspan x="0" y="0" class="st11 st3" style="font-size:33.3439px;">red: </tspan><tspan x="71.7" y="0" class="st11 st3" style="font-size:33.3439px;">E54149</tspan></text>
<rect x="393.8" y="158.5" class="st7" width="229.4" height="94.9"/>
<g id="_x32_EF91x.tif">
	
		<image style="overflow:visible;" width="1170" height="784" id="Layer_0_00000065773724542661481050000005457680266551363263_" xlink:href="755419997AA38633.png"  transform="matrix(0.5 0 0 0.5 -615.0118 880.547)">
	</image>
</g>
<g>
	<rect x="-415" y="1020.9" class="st13" width="177.2" height="65.4"/>
	<text transform="matrix(1 0 0 1 -365.2925 1042.0059)" style="font-family:'Poppins-Medium'; font-size:16px;">Oct. 2018</text>
	<text transform="matrix(1 0 0 1 -406.544 1073.3848)" style="font-family:'Poppins-Medium'; font-size:16px;">$1 : 1</text>
	<text transform="matrix(1 0 0 1 -295.5372 1073.4961)" style="font-family:'Poppins-Medium'; font-size:16px;">$1 : 2.2</text>
</g>
<g>
	<rect x="-415" y="1131.8" class="st13" width="177.2" height="65.4"/>
	<text transform="matrix(1 0 0 1 -373.8843 1152.5436)" style="font-family:'Poppins-Medium'; font-size:16px;">Feb. 26, 2019</text>
	<text transform="matrix(1 0 0 1 -406.544 1184.2111)" style="font-family:'Poppins-Medium'; font-size:16px;">1 : 2.5</text>
	<text transform="matrix(1 0 0 1 -285.5372 1184.3223)" style="font-family:'Poppins-Medium'; font-size:16px;">1 : 3.2</text>
</g>
<g id="_x32_EF91x.tif_00000167380498021770967570000004658162583921612212_">
	
		<image style="overflow:visible;" width="1170" height="784" id="Layer_0_00000137112896319314350700000010869531772965859001_" xlink:href="755419997AA38636.png"  transform="matrix(0.5 0 0 0.5 -615.0118 1380.0353)">
	</image>
</g>
<g>
	<rect x="-415" y="1520.4" class="st14" width="177.2" height="65.4"/>
	<text transform="matrix(1 0 0 1 -361.8843 1541.2056)" style="font-family:'Poppins-Medium'; font-size:16px;">Oct. 2018</text>
	<text transform="matrix(1 0 0 1 -406.544 1572.873)" style="font-family:'Poppins-Medium'; font-size:16px;">1 : 1</text>
	<text transform="matrix(1 0 0 1 -285.5372 1572.9844)" style="font-family:'Poppins-Medium'; font-size:16px;">1 : 2.2</text>
</g>
<g>
	<rect x="-415" y="1631.2" class="st14" width="177.2" height="65.4"/>
	<text transform="matrix(1 0 0 1 -373.8843 1652.0319)" style="font-family:'Poppins-Medium'; font-size:16px;">Feb. 26, 2019</text>
	<text transform="matrix(1 0 0 1 -406.544 1683.6993)" style="font-family:'Poppins-Medium'; font-size:16px;">1 : 2.5</text>
	<text transform="matrix(1 0 0 1 -285.5372 1683.8107)" style="font-family:'Poppins-Medium'; font-size:16px;">1 : 3.2</text>
</g>
</svg>
